<svg xmlns="http://www.w3.org/2000/svg" viewBox="0 0 3000 3000"><defs><style>.cls-1{fill:#fff;}.cls-2{fill:#f7ab09;}</style></defs><title>Horizontal - Branco</title><g id="Camada_5" data-name="Camada 5"><path class="cls-1" d="M1341.09,1508.29v93h-254V1197.12h248.82v93.52h-150.1V1353h131.63v88.33H1185.79v67Z"/><path class="cls-1" d="M1035.12,1508.29v93h-250V1197.12h99.3v311.17Z"/><path class="cls-1" d="M1774.65,1367.43v233.81h-47.34L1714,1551c-28.86,36.37-71.58,57.73-129.89,57.73-120.08,0-205.53-89.48-205.53-209.56,0-119.5,85.45-209,205.53-209,68.7,0,126.43,29.44,162.8,77.94l-82,54.27c-17.89-22.52-45-37.53-80.82-37.53-70.43,0-106.8,57.16-106.8,114.31s36.37,114.31,106.8,114.31c54.84,0,86-29.45,98.72-67.55h-98.72v-78.51Z"/><path class="cls-1" d="M1936.88,1197.12v404.12h-98.73V1197.12Z"/><path class="cls-1" d="M2257.85,1526.19h-153l-23.67,75H1977.28l145.48-404.12h116.62l145.48,404.12H2281.52Zm17.9-431.25c-4.62,42.72-21.94,63.5-54.27,63.5-28.29,0-48.49-16.74-66.39-16.74-11.54,0-14.43,9.23-15.59,16.74l-53.11-9.24c5.77-39.25,23.09-63.5,59.46-63.5,25.41,0,40.42,16.74,60.62,16.74,13.28,0,15.59-10.39,16.17-16.74Zm-41.57,356.2-53.11-168-53.11,168Z"/><path class="cls-1" d="M2804.57,1399.18c0,120.08-86,209.56-205.52,209.56s-205.53-89.48-205.53-209.56c0-119.5,86-209,205.53-209S2804.57,1279.68,2804.57,1399.18Zm-99.3,0c0-57.15-35.79-113.73-106.22-113.73s-106.23,56.58-106.23,113.73,35.79,114.31,106.23,114.31S2705.27,1456.33,2705.27,1399.18Z"/><path class="cls-1" d="M974.56,1806.17c0,59-38.13,104.26-108.73,104.26h-59V1701.91h59C936.43,1701.91,974.56,1747.48,974.56,1806.17Zm-30.09,0c0-46.77-29.19-77.16-78.64-77.16H836.64v154.31h29.19C915.28,1883.32,944.47,1852.94,944.47,1806.17Z"/><path class="cls-1" d="M1145,1860.38h-89.37l-17.58,50h-32.17l77.45-208.52h34l77.45,208.52h-32.17Zm-9.83-27.4-34.86-99.2-35.15,99.2Z"/><path class="cls-1" d="M1382.08,1852.64c0,29.19-20,61.66-73.58,61.66-31.87,0-64.94-14.3-75.07-47.07l29.49-9.23c3,13.7,18.47,28.3,46.18,28.3,22.64,0,42.59-9.83,42.59-31.28,0-28.3-25.32-29.49-58.38-37.53-42-10.13-51.54-32.17-51.54-59.28,0-35.15,30.09-59.88,68.82-59.88,29.78,0,54.51,16.09,63.15,45l-29.2,7.15c-4.17-12.51-14.89-24.43-36.93-24.43-20,0-36,12.22-36,32.18,0,26.51,25.32,30.68,51.83,36.64C1363.91,1804.38,1382.08,1819,1382.08,1852.64Z"/><path class="cls-1" d="M1687.12,1850c0,34.85-23.54,60.47-71.5,60.47H1540V1701.91h67.62c46.77,0,70.9,22,70.9,55.4,0,20-8.94,34.86-25,43.79v.6C1674.31,1809.44,1687.12,1824.93,1687.12,1850Zm-117.37-121v62.86h35.15c22.34,0,43.79-6.55,43.79-32.17,0-24.13-19.66-30.69-41.11-30.69Zm86.68,121c0-25.62-21.15-33.07-43.49-33.07h-43.19v66.43h45.87C1640.35,1883.32,1656.43,1872,1656.43,1850Z"/><path class="cls-1" d="M1861.68,1883.32v27.11h-118V1701.91h115V1729h-84.9v59.88h78.35V1816H1773.8v67.32Z"/><path class="cls-1" d="M2068.41,1850c0,34.85-23.53,60.47-71.49,60.47h-75.66V1701.91h67.62c46.77,0,70.9,22,70.9,55.4,0,20-8.94,34.86-25,43.79v.6C2055.61,1809.44,2068.41,1824.93,2068.41,1850Zm-117.36-121v62.86h35.15c22.34,0,43.79-6.55,43.79-32.17,0-24.13-19.66-30.69-41.11-30.69Zm86.68,121c0-25.62-21.15-33.07-43.49-33.07h-43.19v66.43h45.87C2021.65,1883.32,2037.73,1872,2037.73,1850Z"/><path class="cls-1" d="M2154.8,1701.91v208.52H2125V1701.91Z"/><path class="cls-1" d="M2388.05,1806.17c0,59-38.13,104.26-108.73,104.26h-59V1701.91h59C2349.92,1701.91,2388.05,1747.48,2388.05,1806.17Zm-30.09,0c0-46.77-29.19-77.16-78.64-77.16h-29.2v154.31h29.2C2328.77,1883.32,2358,1852.94,2358,1806.17Z"/><path class="cls-1" d="M2558.44,1860.38h-89.36l-17.58,50h-32.17l77.45-208.52h34l77.45,208.52H2576Zm-9.83-27.4-34.85-99.2-35.15,99.2Z"/><path class="cls-1" d="M2795.57,1852.64c0,29.19-20,61.66-73.58,61.66-31.88,0-64.94-14.3-75.07-47.07l29.49-9.23c3,13.7,18.47,28.3,46.17,28.3,22.64,0,42.6-9.83,42.6-31.28,0-28.3-25.32-29.49-58.39-37.53-42-10.13-51.53-32.17-51.53-59.28,0-35.15,30.09-59.88,68.81-59.88,29.79,0,54.52,16.09,63.16,45l-29.2,7.15c-4.17-12.51-14.89-24.43-36.94-24.43-20,0-36,12.22-36,32.18,0,26.51,25.32,30.68,51.83,36.64C2777.4,1804.38,2795.57,1819,2795.57,1852.64Z"/><path class="cls-1" d="M554.28,1455.61c29-66.84,36.89-130.26,38.42-171.7,1.65-45.08-3.56-74.2-3.78-75.42l-2.07-11.37H201.6l-2.07,11.37c-.22,1.22-5.43,30.34-3.78,75.42,1.53,41.44,9.43,104.86,38.42,171.7.82,2,15.82,39,27.37,90.38,10.81,48,20.75,118.84,6.71,183.33l-.12.67c-.17,1.06-17,106.87-36.95,163L225,1910.43H563.46L557.27,1893c-20-56.18-36.78-162-36.95-163l-.12-.67c-14-64.49-4.1-135.29,6.71-183.33C538.46,1494.63,553.46,1457.59,554.28,1455.61Zm-29.45-9.12c-.66,1.58-16.25,39.49-28.54,93.91a580.37,580.37,0,0,0-13.53,92.34c-2.2,36.73,0,70.78,6.6,101.2,1.13,7.1,14.67,91.24,32.31,149.57H266.78c17.64-58.33,31.18-142.47,32.31-149.57,6.58-30.42,8.8-64.47,6.6-101.2a580.37,580.37,0,0,0-13.53-92.34c-12.29-54.42-27.89-92.33-28.54-93.91l-.08-.19c-27.43-63.17-35-123.24-36.48-162.51a411.08,411.08,0,0,1,1.86-59.75H559.53a411.08,411.08,0,0,1,1.86,59.75c-1.5,39.27-9,99.34-36.48,162.51Z"/><path class="cls-2" d="M362.43,1403.4a78.85,78.85,0,0,1-9.55-37.71c0-10.06,2-20.38,7.54-28.76,8.53-12.84,26-18.71,39.43-9.62a31.13,31.13,0,0,1,11.32,15.22,40.24,40.24,0,0,1,1.87,7.39c.4,2.47.63,5,.81,7.49.13,1.69.23,3.41.36,5.17a45.68,45.68,0,0,0,1.4-6.54,48.16,48.16,0,0,0,.45-5.5,55.24,55.24,0,0,0-6.35-26.67c-12.92-24.54-44-27.25-67-16.51-28.09,13.08-48.67,42.23-54.27,72.35-9.92,53.42,17.06,105.11,28.58,156.12a599.87,599.87,0,0,1,14,95.67c2.3,38.39,0,74.14-6.91,106.26-1.58,9.9-11.32,69.52-24.87,122.87h190c-13.55-53.34-23.29-113-24.87-122.87-6.89-32.12-9.21-67.87-6.91-106.26a599.87,599.87,0,0,1,14-95.67c12.19-54,35.59-104.55,48.84-158.14a613.56,613.56,0,0,0,15.05-82.89c-2,18.52-9.24,35.81-15.87,53-6.57,17-14.17,33.83-24.85,48.72-26,36.26-79.86,59.24-117.48,25.57A70.26,70.26,0,0,1,362.43,1403.4Z"/></g></svg>