<svg xmlns="http://www.w3.org/2000/svg" viewBox="0 0 3000 3000"><defs><style>.cls-1{fill:#fff;}.cls-2{fill:#f7aa00;}</style></defs><title>Vertical - Branco</title><g id="Camada_5" data-name="Camada 5"><path class="cls-1" d="M984.73,2269.08v105.54H696.27v-458.9H978.82v106.21H808.38v70.8H957.85V2193H808.38v76Z"/><path class="cls-1" d="M637.27,2269.08v105.54H353.41v-458.9H466.17v353.36Z"/><path class="cls-1" d="M1477.06,2109.12v265.5H1423.3l-15.08-57c-32.77,41.3-81.29,65.56-147.5,65.56-136.36,0-233.38-101.62-233.38-238,0-135.7,97-237.31,233.38-237.31,78,0,143.57,33.43,184.87,88.5L1352.5,2058c-20.32-25.57-51.13-42.61-91.78-42.61-80,0-121.28,64.9-121.28,129.8S1180.74,2275,1260.72,2275c62.28,0,97.68-33.44,112.1-76.71h-112.1v-89.15Z"/><path class="cls-1" d="M1661.27,1915.72v458.9h-112.1v-458.9Z"/><path class="cls-1" d="M2025.76,2289.4H1852l-26.87,85.22h-118l165.21-458.9h132.42L2170,2374.62H2052.64Zm20.32-489.71c-5.24,48.51-24.91,72.11-61.62,72.11-32.12,0-55.07-19-75.39-19-13.11,0-16.39,10.49-17.7,19l-60.31-10.49c6.55-44.58,26.22-72.11,67.52-72.11,28.85,0,45.89,19,68.84,19,15.07,0,17.7-11.8,18.35-19Zm-47.2,404.48-60.31-190.77-60.31,190.77Z"/><path class="cls-1" d="M2646.59,2145.17c0,136.36-97.68,238-233.39,238s-233.38-101.62-233.38-238c0-135.7,97.68-237.31,233.38-237.31S2646.59,2009.47,2646.59,2145.17Zm-112.76,0c0-64.9-40.65-129.14-120.63-129.14s-120.62,64.24-120.62,129.14S2333.22,2275,2413.2,2275,2533.83,2210.07,2533.83,2145.17Z"/><path class="cls-1" d="M568.51,2607.33c0,67-43.3,118.4-123.47,118.4h-67V2488.94h67C525.21,2488.94,568.51,2540.69,568.51,2607.33Zm-34.17,0c0-53.11-33.15-87.61-89.3-87.61H411.89v175.22H445C501.19,2694.94,534.34,2660.44,534.34,2607.33Z"/><path class="cls-1" d="M762,2668.9H660.52l-20,56.83H604l88-236.79h38.56l88,236.79H782Zm-11.16-31.13-39.58-112.64-39.91,112.64Z"/><path class="cls-1" d="M1031.27,2660.1c0,33.15-22.66,70-83.55,70-36.2,0-73.75-16.23-85.25-53.44L896,2666.19c3.38,15.56,21,32.14,52.43,32.14,25.71,0,48.38-11.17,48.38-35.52,0-32.14-28.76-33.49-66.31-42.62-47.69-11.51-58.52-36.54-58.52-67.32,0-39.92,34.17-68,78.14-68,33.83,0,61.91,18.26,71.72,51.08l-33.15,8.11c-4.74-14.2-16.92-27.73-41.95-27.73-22.66,0-40.93,13.86-40.93,36.53,0,30.11,28.75,34.84,58.86,41.61C1010.64,2605.3,1031.27,2621.88,1031.27,2660.1Z"/><path class="cls-1" d="M1377.66,2657.06c0,39.57-26.73,68.67-81.19,68.67h-85.92V2488.94h76.79c53.11,0,80.51,25,80.51,62.91,0,22.67-10.15,39.58-28.42,49.73v.68C1363.11,2611.05,1377.66,2628.64,1377.66,2657.06Zm-133.28-137.34v71.37h39.91c25.37,0,49.73-7.44,49.73-36.53,0-27.4-22.33-34.84-46.68-34.84Zm98.43,137.34c0-29.09-24-37.55-49.38-37.55h-49v75.43h52.09C1324.55,2694.94,1342.81,2682.09,1342.81,2657.06Z"/><path class="cls-1" d="M1575.88,2694.94v30.79h-134V2488.94H1572.5v30.78h-96.41v68h89v30.78h-89v76.45Z"/><path class="cls-1" d="M1810.64,2657.06c0,39.57-26.72,68.67-81.18,68.67h-85.92V2488.94h76.78c53.11,0,80.51,25,80.51,62.91,0,22.67-10.15,39.58-28.41,49.73v.68C1796.1,2611.05,1810.64,2628.64,1810.64,2657.06Zm-133.28-137.34v71.37h39.92c25.37,0,49.73-7.44,49.73-36.53,0-27.4-22.33-34.84-46.69-34.84Zm98.44,137.34c0-29.09-24-37.55-49.39-37.55h-49.05v75.43h52.1C1757.53,2694.94,1775.8,2682.09,1775.8,2657.06Z"/><path class="cls-1" d="M1908.74,2488.94v236.79h-33.83V2488.94Z"/><path class="cls-1" d="M2173.6,2607.33c0,67-43.29,118.4-123.47,118.4h-67V2488.94h67C2130.31,2488.94,2173.6,2540.69,2173.6,2607.33Zm-34.16,0c0-53.11-33.15-87.61-89.31-87.61H2017v175.22h33.15C2106.29,2694.94,2139.44,2660.44,2139.44,2607.33Z"/><path class="cls-1" d="M2367.1,2668.9H2265.62l-20,56.83h-36.53l87.95-236.79h38.56l88,236.79h-36.53Zm-11.16-31.13-39.58-112.64-39.92,112.64Z"/><path class="cls-1" d="M2636.36,2660.1c0,33.15-22.66,70-83.55,70-36.19,0-73.74-16.23-85.24-53.44l33.49-10.49c3.38,15.56,21,32.14,52.43,32.14,25.71,0,48.37-11.17,48.37-35.52,0-32.14-28.75-33.49-66.3-42.62-47.7-11.51-58.52-36.54-58.52-67.32,0-39.92,34.16-68,78.14-68,33.83,0,61.9,18.26,71.71,51.08l-33.15,8.11c-4.73-14.2-16.91-27.73-41.94-27.73-22.67,0-40.93,13.86-40.93,36.53,0,30.11,28.75,34.84,58.86,41.61C2615.73,2605.3,2636.36,2621.88,2636.36,2660.1Z"/><path class="cls-1" d="M1793.09,742.5c53-122.2,67.47-238.15,70.25-313.93,3-82.43-6.5-135.68-6.9-137.9l-3.8-20.79H1148.25l-3.79,20.79c-.41,2.22-9.93,55.47-6.9,137.9,2.78,75.78,17.23,191.73,70.24,313.93,1.49,3.63,28.92,71.36,50,165.26,19.77,87.84,37.94,217.3,12.28,335.21l-.23,1.22c-.31,2-31.05,195.41-67.56,298.12L1191,1574.12h618.85l-11.3-31.81c-36.51-102.71-67.26-296.17-67.56-298.12l-.23-1.22c-25.66-117.91-7.49-247.37,12.27-335.21C1764.18,813.86,1791.61,746.13,1793.09,742.5Zm-53.84-16.67c-1.2,2.9-29.71,72.2-52.18,171.71-13.21,58.51-21.53,115.31-24.74,168.84-4,67.17,0,129.42,12.07,185,2.06,13,26.81,166.82,59.07,273.48h-466c32.25-106.66,57-260.5,59.06-273.48,12-55.62,16.1-117.87,12.07-185-3.21-53.53-11.53-110.33-24.74-168.84-22.46-99.51-51-168.81-52.18-171.71l-.15-.35c-50.14-115.49-63.94-225.33-66.69-297.13a753.22,753.22,0,0,1,3.39-109.26H1802.7a752.87,752.87,0,0,1,3.4,109.26c-2.75,71.8-16.55,181.64-66.7,297.13Z"/><path class="cls-2" d="M1442.31,647.05a144.3,144.3,0,0,1-17.47-68.95c0-18.39,3.64-37.28,13.8-52.6,15.59-23.47,47.48-34.21,72.09-17.57,9.74,6.58,16.66,16.79,20.69,27.82a72.58,72.58,0,0,1,3.43,13.51c.73,4.52,1.14,9.08,1.49,13.71.23,3.08.42,6.23.65,9.44a82.84,82.84,0,0,0,2.56-12,86.36,86.36,0,0,0,.82-10.05,101,101,0,0,0-11.61-48.78c-23.62-44.86-80.38-49.81-122.56-30.17-51.36,23.91-89,77.2-99.23,132.27-18.14,97.69,31.2,192.2,52.26,285.47,13.66,60.5,22.27,119.36,25.6,174.93,4.21,70.19,0,135.54-12.64,194.28-2.89,18.1-20.69,127.12-45.48,224.67h347.47c-24.78-97.55-42.59-206.56-45.48-224.67-12.59-58.74-16.84-124.1-12.64-194.28,3.33-55.57,12-114.42,25.61-174.93C1664,790.49,1706.74,698,1731,600c12.35-49.94,22.1-100.35,27.52-151.54-3.59,33.85-16.89,65.46-29,96.91-12,31.14-25.92,61.85-45.44,89.08-47.54,66.3-146,108.33-214.8,46.77A128.83,128.83,0,0,1,1442.31,647.05Z"/></g></svg>