<svg id="Camada_3" data-name="Camada 3" xmlns="http://www.w3.org/2000/svg" viewBox="0 0 8628.11 842.14"><defs><style>.cls-1{fill:#f7ab09;}</style></defs><title>slogan amarelo</title><path class="cls-1" d="M1131.88,265.72V600.06h-3.05L934.44,411V594.38H868.63V260.44h3.25l194,188.7V265.72Z"/><path class="cls-1" d="M1387.61,548.27h-131L1235.67,594h-71.09L1321,258.41h2L1479.63,594h-71.3ZM1362,492.2l-39.81-87.54-40,87.54Z"/><path class="cls-1" d="M1617.14,537.5l52.61-37c14.42,23.16,35.35,33.72,63.58,33.72,30.88,0,51.59-12.59,51.59-30.06,0-24-39.2-42.86-73.53-59.92-36.76-18.29-77.18-38.39-77.18-90.6,0-56.67,47.93-94,108.06-94,44.69,0,81.65,18.48,96.48,58.09l-48.54,33.92c-9.75-19.5-28.64-27.42-46.93-27.42-24.57,0-42.86,14.22-42.86,31.08,0,19.5,24.79,26.2,62.36,43.87,54.24,25.6,88.36,53.22,88.36,103.6,0,59.71-48.75,97.7-118.82,97.7C1678.69,600.47,1639.08,578.13,1617.14,537.5Z"/><path class="cls-1" d="M1888.11,472.91V266.53h66.22V472.7c0,35.75,28.24,61.75,59.92,61.75s60.33-26.2,60.33-61.75V266.53h66.22V472.91c0,74.14-56.67,128.17-126.34,128.17S1888.11,547.05,1888.11,472.91Z"/><path class="cls-1" d="M2363.42,548.27h-131L2211.49,594h-71.1L2296.8,258.41h2L2455.44,594h-71.3Zm-25.59-56.07L2298,404.66l-40,87.54Z"/><path class="cls-1" d="M2595.8,430.45c0-92.42,77.8-170.62,170-170.62,42.65.61,80.43,17.47,114.76,50.58l-38,51.79c-22.35-21.93-49.16-35.34-77.39-35.34-52.61,0-102.79,46.72-102.79,104,0,58.3,52,103.39,102.58,103.39,30.07,0,56.07-16,77.8-37.37l37.78,53.21c-28.84,28.64-64,50.18-113.55,50.18C2672.58,600.27,2595.8,522.47,2595.8,430.45Z"/><path class="cls-1" d="M3116.41,548.27h-131L2964.47,594h-71.09l156.4-335.56h2L3208.42,594h-71.29Zm-25.59-56.07L3051,404.66l-40,87.54Z"/><path class="cls-1" d="M3213.91,537.5l52.61-37c14.42,23.16,35.34,33.72,63.58,33.72,30.87,0,51.59-12.59,51.59-30.06,0-24-39.2-42.86-73.53-59.92C3271.39,426,3231,405.88,3231,353.67c0-56.67,47.94-94,108.06-94,44.69,0,81.66,18.48,96.49,58.09L3387,351.64c-9.75-19.5-28.64-27.42-46.92-27.42-24.58,0-42.86,14.22-42.86,31.08,0,19.5,24.78,26.2,62.36,43.87,54.23,25.6,88.36,53.22,88.36,103.6,0,59.71-48.75,97.7-118.83,97.7C3275.46,600.47,3235.85,578.13,3213.91,537.5Z"/><path class="cls-1" d="M3670.33,548.27h-131L3518.39,594H3447.3l156.41-335.56h2L3762.35,594h-71.3Zm-25.59-56.07-39.82-87.54-40,87.54Z"/><path class="cls-1" d="M3789.16,656.13c15.84,0,38.39-12.19,38.39-38,0-8.33-.61-10.76-3.05-15.23-14.22,0-36.56-12.19-36.56-38a44.13,44.13,0,0,1,44.69-44.48c26,0,45.29,21.12,45.29,60.12,0,43.47-23.76,87.35-65,87.35C3797.49,667.91,3789.16,659.38,3789.16,656.13Z"/><path class="cls-1" d="M4336.38,539.13a163.67,163.67,0,0,0,35.95,6.09l-5.28,64.19c-35.75-2.24-62.36-13.21-83.89-28a167.53,167.53,0,0,1-77.8,18.89c-93.44,0-170-76.38-170-169.61,0-94.05,76.57-170.83,170.22-170.83S4376,336.61,4376,430.66A168.22,168.22,0,0,1,4336.38,539.13Zm-131-5.49a96.3,96.3,0,0,0,23.16-2.64c-21.33-22.55-41.44-41.64-70.89-43.67l3.45-56.47c62.77,4.67,85.72,41.64,117.61,72.52a102.87,102.87,0,0,0,30.67-73.13,104.2,104.2,0,0,0-104-104c-57.08,0-103.59,46.72-103.59,104C4101.77,487.13,4148.28,533.64,4205.36,533.64Z"/><path class="cls-1" d="M4415.8,472.91V266.53H4482V472.7c0,35.75,28.23,61.75,59.92,61.75s60.33-26.2,60.33-61.75V266.53h66.22V472.91c0,74.14-56.67,128.17-126.35,128.17S4415.8,547.05,4415.8,472.91Z"/><path class="cls-1" d="M4891.11,548.27h-131L4739.17,594h-71.09l156.41-335.56h2L4983.13,594h-71.3Zm-25.59-56.07-39.81-87.54-40,87.54Z"/><path class="cls-1" d="M5213.27,528.56V594H5015.83V266.53h65.81v262Z"/><path class="cls-1" d="M5526.89,539.13a163.87,163.87,0,0,0,36,6.09l-5.28,64.19c-35.75-2.24-62.36-13.21-83.9-28a167.45,167.45,0,0,1-77.79,18.89c-93.44,0-170-76.38-170-169.61,0-94.05,76.58-170.83,170.22-170.83s170.42,76.78,170.42,170.83A168.22,168.22,0,0,1,5526.89,539.13Zm-131-5.49A96.22,96.22,0,0,0,5419,531c-21.32-22.55-41.43-41.64-70.89-43.67l3.46-56.47c62.76,4.67,85.72,41.64,117.61,72.52a102.87,102.87,0,0,0,30.67-73.13,104.2,104.2,0,0,0-104-104c-57.08,0-103.6,46.72-103.6,104C5292.28,487.13,5338.8,533.64,5395.88,533.64Z"/><path class="cls-1" d="M5606.32,472.91V266.53h66.21V472.7c0,35.75,28.24,61.75,59.93,61.75s60.32-26.2,60.32-61.75V266.53H5859V472.91c0,74.14-56.67,128.17-126.34,128.17S5606.32,547.05,5606.32,472.91Z"/><path class="cls-1" d="M5978.85,331.33v64h112.93v65.61H5978.85v67.64h131.62V594H5913V266.53h197.44v64.8Z"/><path class="cls-1" d="M6329,594l-104.2-154.78V594H6159l-.2-327.44h106.84c61.14,0,111.31,47.13,111.31,106,0,42.05-25.39,78.82-60.53,91.21l93,130.2Zm-104.4-180,42.25.2c22.34.21,42.25-17.87,42.25-41.23s-20.11-41.24-42.25-41.24h-42.25Z"/><path class="cls-1" d="M6811.46,266.53V594h-65.61V462.75H6628.24V594h-65.61V266.53h65.61v131h117.61v-131Z"/><path class="cls-1" d="M6854.11,430.66c0-94.05,76.58-170.83,170.22-170.83s170.42,76.78,170.42,170.83c0,93.23-76.78,169.61-170.62,169.61C6930.69,600.27,6854.11,523.89,6854.11,430.66Zm274-.41a104.2,104.2,0,0,0-104-104c-57.08,0-103.6,46.72-103.6,104,0,56.88,46.52,103.39,103.6,103.39C7081.41,533.64,7128.13,487.13,7128.13,430.25Z"/><path class="cls-1" d="M7407.63,594,7303.42,439.19V594h-65.81l-.2-327.44h106.84c61.14,0,111.32,47.13,111.32,106,0,42.05-25.4,78.82-60.54,91.21l93,130.2ZM7303.22,414l42.25.2c22.35.21,42.25-17.87,42.25-41.23s-20.11-41.24-42.25-41.24h-42.25Z"/><path class="cls-1" d="M7718.21,548.27h-131L7566.27,594h-71.1l156.41-335.56h2L7810.22,594h-71.3Zm-25.6-56.07-39.81-87.54-40,87.54Z"/></svg>