<svg viewBox="0 0 8628.11 842.14" xmlns="http://www.w3.org/2000/svg"><g fill="#f7ab09"><path d="m1131.88 265.72v334.34h-3.05l-194.39-189.06v183.38h-65.81v-333.94h3.25l194 188.7v-183.42z"/><path d="m1387.61 548.27h-131l-20.94 45.73h-71.09l156.42-335.59h2l156.63 335.59h-71.3zm-25.61-56.07-39.81-87.54-40 87.54z"/><path d="m1617.14 537.5 52.61-37c14.42 23.16 35.35 33.72 63.58 33.72 30.88 0 51.59-12.59 51.59-30.06 0-24-39.2-42.86-73.53-59.92-36.76-18.29-77.18-38.39-77.18-90.6 0-56.67 47.93-94 108.06-94 44.69 0 81.65 18.48 96.48 58.09l-48.54 33.92c-9.75-19.5-28.64-27.42-46.93-27.42-24.57 0-42.86 14.22-42.86 31.08 0 19.5 24.79 26.2 62.36 43.87 54.24 25.6 88.36 53.22 88.36 103.6 0 59.71-48.75 97.7-118.82 97.7-53.63-.01-93.24-22.35-115.18-62.98z"/><path d="m1888.11 472.91v-206.38h66.22v206.17c0 35.75 28.24 61.75 59.92 61.75s60.33-26.2 60.33-61.75v-206.17h66.22v206.38c0 74.14-56.67 128.17-126.34 128.17s-126.35-54.03-126.35-128.17z"/><path d="m2363.42 548.27h-131l-20.93 45.73h-71.1l156.41-335.59h2l156.64 335.59h-71.3zm-25.59-56.07-39.83-87.54-40 87.54z"/><path d="m2595.8 430.45c0-92.42 77.8-170.62 170-170.62 42.65.61 80.43 17.47 114.76 50.58l-38 51.79c-22.35-21.93-49.16-35.34-77.39-35.34-52.61 0-102.79 46.72-102.79 104 0 58.3 52 103.39 102.58 103.39 30.07 0 56.07-16 77.8-37.37l37.78 53.21c-28.84 28.64-64 50.18-113.55 50.18-94.41 0-171.19-77.8-171.19-169.82z"/><path d="m3116.41 548.27h-131l-20.94 45.73h-71.09l156.4-335.56h2l156.64 335.56h-71.29zm-25.59-56.07-39.82-87.54-40 87.54z"/><path d="m3213.91 537.5 52.61-37c14.42 23.16 35.34 33.72 63.58 33.72 30.87 0 51.59-12.59 51.59-30.06 0-24-39.2-42.86-73.53-59.92-36.77-18.24-77.16-38.36-77.16-90.57 0-56.67 47.94-94 108.06-94 44.69 0 81.66 18.48 96.49 58.09l-48.55 33.88c-9.75-19.5-28.64-27.42-46.92-27.42-24.58 0-42.86 14.22-42.86 31.08 0 19.5 24.78 26.2 62.36 43.87 54.23 25.6 88.36 53.22 88.36 103.6 0 59.71-48.75 97.7-118.83 97.7-53.65 0-93.26-22.34-115.2-62.97z"/><path d="m3670.33 548.27h-131l-20.94 45.73h-71.09l156.41-335.56h2l156.64 335.56h-71.3zm-25.59-56.07-39.82-87.54-40 87.54z"/><path d="m3789.16 656.13c15.84 0 38.39-12.19 38.39-38 0-8.33-.61-10.76-3.05-15.23-14.22 0-36.56-12.19-36.56-38a44.13 44.13 0 0 1 44.69-44.48c26 0 45.29 21.12 45.29 60.12 0 43.47-23.76 87.35-65 87.35-15.43.02-23.76-8.51-23.76-11.76z"/><path d="m4336.38 539.13a163.67 163.67 0 0 0 35.95 6.09l-5.28 64.19c-35.75-2.24-62.36-13.21-83.89-28a167.53 167.53 0 0 1 -77.8 18.89c-93.44 0-170-76.38-170-169.61 0-94.05 76.57-170.83 170.22-170.83s170.42 76.75 170.42 170.8a168.22 168.22 0 0 1 -39.62 108.47zm-131-5.49a96.3 96.3 0 0 0 23.16-2.64c-21.33-22.55-41.44-41.64-70.89-43.67l3.45-56.47c62.77 4.67 85.72 41.64 117.61 72.52a102.87 102.87 0 0 0 30.67-73.13 104.2 104.2 0 0 0 -104-104c-57.08 0-103.59 46.72-103.59 104-.02 56.88 46.49 103.39 103.57 103.39z"/><path d="m4415.8 472.91v-206.38h66.2v206.17c0 35.75 28.23 61.75 59.92 61.75s60.33-26.2 60.33-61.75v-206.17h66.22v206.38c0 74.14-56.67 128.17-126.35 128.17s-126.32-54.03-126.32-128.17z"/><path d="m4891.11 548.27h-131l-20.94 45.73h-71.09l156.41-335.56h2l156.64 335.56h-71.3zm-25.59-56.07-39.81-87.54-40 87.54z"/><path d="m5213.27 528.56v65.44h-197.44v-327.47h65.81v262z"/><path d="m5526.89 539.13a163.87 163.87 0 0 0 36 6.09l-5.28 64.19c-35.75-2.24-62.36-13.21-83.9-28a167.45 167.45 0 0 1 -77.79 18.89c-93.44 0-170-76.38-170-169.61 0-94.05 76.58-170.83 170.22-170.83s170.42 76.78 170.42 170.83a168.22 168.22 0 0 1 -39.67 108.44zm-131-5.49a96.22 96.22 0 0 0 23.11-2.64c-21.32-22.55-41.43-41.64-70.89-43.67l3.46-56.47c62.76 4.67 85.72 41.64 117.61 72.52a102.87 102.87 0 0 0 30.67-73.13 104.2 104.2 0 0 0 -104-104c-57.08 0-103.6 46.72-103.6 104 .03 56.88 46.55 103.39 103.63 103.39z"/><path d="m5606.32 472.91v-206.38h66.21v206.17c0 35.75 28.24 61.75 59.93 61.75s60.32-26.2 60.32-61.75v-206.17h66.22v206.38c0 74.14-56.67 128.17-126.34 128.17s-126.34-54.03-126.34-128.17z"/><path d="m5978.85 331.33v64h112.93v65.61h-112.93v67.64h131.62v65.42h-197.47v-327.47h197.44v64.8z"/><path d="m6329 594-104.2-154.78v154.78h-65.8l-.2-327.44h106.84c61.14 0 111.31 47.13 111.31 106 0 42.05-25.39 78.82-60.53 91.21l93 130.2zm-104.4-180 42.25.2c22.34.21 42.25-17.87 42.25-41.23s-20.11-41.24-42.25-41.24h-42.25z"/><path d="m6811.46 266.53v327.47h-65.61v-131.25h-117.61v131.25h-65.61v-327.47h65.61v131h117.61v-131z"/><path d="m6854.11 430.66c0-94.05 76.58-170.83 170.22-170.83s170.42 76.78 170.42 170.83c0 93.23-76.78 169.61-170.62 169.61-93.44 0-170.02-76.38-170.02-169.61zm274-.41a104.2 104.2 0 0 0 -104-104c-57.08 0-103.6 46.72-103.6 104 0 56.88 46.52 103.39 103.6 103.39 57.3 0 104.02-46.51 104.02-103.39z"/><path d="m7407.63 594-104.21-154.81v154.81h-65.81l-.2-327.44h106.84c61.14 0 111.32 47.13 111.32 106 0 42.05-25.4 78.82-60.54 91.21l93 130.2zm-104.41-180 42.25.2c22.35.21 42.25-17.87 42.25-41.23s-20.11-41.24-42.25-41.24h-42.25z"/><path d="m7718.21 548.27h-131l-20.94 45.73h-71.1l156.41-335.56h2l156.64 335.56h-71.3zm-25.6-56.07-39.81-87.54-40 87.54z"/></g></svg>